999
dxfrw 0.6.3
  0
SECTION
  2
HEADER
  9
$ACADVER
  1
AC1021
  9
$DWGCODEPAGE
  3
ANSI_1252
  9
$INSBASE
 10
0
 20
0
 30
0
  9
$EXTMIN
 10
-261.1250000000005
 20
-221.25
 30
0
  9
$EXTMAX
 10
265.8867500000019
 20
406.761750000003
 30
0
  9
$LIMMIN
 10
0
 20
0
  9
$LIMMAX
 10
420
 20
297
  9
$ORTHOMODE
 70
    0
  9
$REGENMODE
 70
    1
  9
$FILLMODE
 70
    1
  9
$QTEXTMODE
 70
    0
  9
$MIRRTEXT
 70
    0
  9
$LTSCALE
 40
1
  9
$ATTMODE
 70
    0
  9
$TEXTSIZE
 40
2.5
  9
$TRACEWID
 40
15.68
  9
$TEXTSTYLE
  7
STANDARD
  9
$CLAYER
  8
platform_bottom
  9
$CELTYPE
  6
BYLAYER
  9
$CECOLOR
 62
  256
  9
$CELTSCALE
 40
1
  9
$DISPSILH
 70
    0
  9
$DIMSCALE
 40
1
  9
$DIMASZ
 40
2.5
  9
$DIMEXO
 40
0.625
  9
$DIMDLI
 40
3.75
  9
$DIMRND
 40
0
  9
$DIMDLE
 40
0
  9
$DIMEXE
 40
1.25
  9
$DIMTP
 40
0
  9
$DIMTM
 40
0
  9
$DIMTXT
 40
2.5
  9
$DIMCEN
 40
2.5
  9
$DIMTSZ
 40
0
  9
$DIMTOL
 70
    0
  9
$DIMLIM
 70
    0
  9
$DIMTIH
 70
    0
  9
$DIMTOH
 70
    0
  9
$DIMSE1
 70
    0
  9
$DIMSE2
 70
    0
  9
$DIMTAD
 70
    1
  9
$DIMZIN
 70
    8
  9
$DIMBLK
  1

  9
$DIMASO
 70
    1
  9
$DIMSHO
 70
    1
  9
$DIMPOST
  1

  9
$DIMAPOST
  1

  9
$DIMALT
 70
    0
  9
$DIMALTD
 70
    3
  9
$DIMALTF
 40
0.03937
  9
$DIMLFAC
 40
1
  9
$DIMTOFL
 70
    1
  9
$DIMTVP
 40
0
  9
$DIMTIX
 70
    0
  9
$DIMSOXD
 70
    0
  9
$DIMSAH
 70
    0
  9
$DIMBLK1
  1

  9
$DIMBLK2
  1

  9
$DIMSTYLE
  2
STANDARD
  9
$DIMCLRD
 70
    0
  9
$DIMCLRE
 70
    0
  9
$DIMCLRT
 70
    0
  9
$DIMTFAC
 40
1
  9
$DIMGAP
 40
0.625
  9
$DIMJUST
 70
    0
  9
$DIMSD1
 70
    0
  9
$DIMSD2
 70
    0
  9
$DIMTOLJ
 70
    0
  9
$DIMTZIN
 70
    8
  9
$DIMALTZ
 70
    0
  9
$DIMALTTZ
 70
    0
  9
$DIMUPT
 70
    0
  9
$DIMDEC
 70
    2
  9
$DIMTDEC
 70
    2
  9
$DIMALTU
 70
    2
  9
$DIMALTTD
 70
    3
  9
$DIMTXSTY
  7
STANDARD
  9
$DIMAUNIT
 70
    0
  9
$DIMADEC
 70
    0
  9
$DIMALTRND
 40
0
  9
$DIMAZIN
 70
    0
  9
$DIMDSEP
 70
   44
  9
$DIMATFIT
 70
    3
  9
$DIMFRAC
 70
    0
  9
$DIMLDRBLK
  1
STANDARD
  9
$DIMLUNIT
 70
    2
  9
$DIMLWD
 70
   -2
  9
$DIMLWE
 70
   -2
  9
$DIMTMOVE
 70
    0
  9
$DIMFXL
 40
1
  9
$DIMFXLON
 70
    0
  9
$DIMJOGANG
 40
0.7854
  9
$DIMTFILL
 70
    0
  9
$DIMTFILLCLR
 70
    0
  9
$DIMARCSYM
 70
    0
  9
$DIMLTYPE
  6

  9
$DIMLTEX1
  6

  9
$DIMLTEX2
  6

  9
$LUNITS
 70
    2
  9
$LUPREC
 70
    4
  9
$SKETCHINC
 40
1
  9
$FILLETRAD
 40
0
  9
$AUNITS
 70
    0
  9
$AUPREC
 70
    2
  9
$MENU
  1
.
  9
$ELEVATION
 40
0
  9
$PELEVATION
 40
0
  9
$THICKNESS
 40
0
  9
$LIMCHECK
 70
    0
  9
$CHAMFERA
 40
0
  9
$CHAMFERB
 40
0
  9
$CHAMFERC
 40
0
  9
$CHAMFERD
 40
0
  9
$SKPOLY
 70
    0
  9
$USRTIMER
 70
    1
  9
$ANGBASE
 50
0
  9
$ANGDIR
 70
    0
  9
$PDMODE
 70
   34
  9
$PDSIZE
 40
0
  9
$PLINEWID
 40
0
  9
$SPLFRAME
 70
    0
  9
$SPLINETYPE
 70
    2
  9
$SPLINESEGS
 70
    8
  9
$HANDSEED
  5
20000
  9
$SURFTAB1
 70
    6
  9
$SURFTAB2
 70
    6
  9
$SURFTYPE
 70
    6
  9
$SURFU
 70
    6
  9
$SURFV
 70
    6
  9
$UCSBASE
  2

  9
$UCSNAME
  2

  9
$UCSORG
 10
0
 20
0
 30
0
  9
$UCSXDIR
 10
1
 20
0
 30
0
  9
$UCSYDIR
 10
0
 20
1
 30
0
  9
$UCSORTHOREF
  2

  9
$UCSORTHOVIEW
 70
    0
  9
$UCSORGTOP
 10
0
 20
0
 30
0
  9
$UCSORGBOTTOM
 10
0
 20
0
 30
0
  9
$UCSORGLEFT
 10
0
 20
0
 30
0
  9
$UCSORGRIGHT
 10
0
 20
0
 30
0
  9
$UCSORGFRONT
 10
0
 20
0
 30
0
  9
$UCSORGBACK
 10
0
 20
0
 30
0
  9
$PUCSBASE
  2

  9
$PUCSNAME
  2

  9
$PUCSORG
 10
0
 20
0
 30
0
  9
$PUCSXDIR
 10
1
 20
0
 30
0
  9
$PUCSYDIR
 10
0
 20
1
 30
0
  9
$PUCSORTHOREF
  2

  9
$PUCSORTHOVIEW
 70
    0
  9
$PUCSORGTOP
 10
0
 20
0
 30
0
  9
$PUCSORGBOTTOM
 10
0
 20
0
 30
0
  9
$PUCSORGLEFT
 10
0
 20
0
 30
0
  9
$PUCSORGRIGHT
 10
0
 20
0
 30
0
  9
$PUCSORGFRONT
 10
0
 20
0
 30
0
  9
$PUCSORGBACK
 10
0
 20
0
 30
0
  9
$USERI1
 70
    0
  9
$USERI2
 70
    0
  9
$USERI3
 70
    0
  9
$USERI4
 70
    0
  9
$USERI5
 70
    0
  9
$USERR1
 40
0
  9
$USERR2
 40
0
  9
$USERR3
 40
0
  9
$USERR4
 40
0
  9
$USERR5
 40
0
  9
$WORLDVIEW
 70
    1
  9
$SHADEDGE
 70
    3
  9
$SHADEDIF
 70
   70
  9
$TILEMODE
 70
    1
  9
$MAXACTVP
 70
   64
  9
$PINSBASE
 10
0
 20
0
 30
0
  9
$PLIMCHECK
 70
    0
  9
$PEXTMIN
 10
0
 20
0
 30
0
  9
$PEXTMAX
 10
0
 20
0
 30
0
  9
$SNAPSTYLE
 70
    0
  9
$PLIMMIN
 10
0
 20
0
  9
$PLIMMAX
 10
29.7
 20
21
  9
$UNITMODE
 70
    0
  9
$VISRETAIN
 70
    1
  9
$PLINEGEN
 70
    0
  9
$PSLTSCALE
 70
    1
  9
$TREEDEPTH
 70
 3020
  9
$CMLSTYLE
  2
Standard
  9
$CMLJUST
 70
    0
  9
$CMLSCALE
 40
20
  9
$PROXYGRAPHICS
 70
    1
  9
$MEASUREMENT
 70
    1
  9
$CELWEIGHT
370
   -1
  9
$ENDCAPS
280
    0
  9
$JOINSTYLE
280
    0
  9
$LWDISPLAY
290
    0
  9
$INSUNITS
 70
    4
  9
$HYPERLINKBASE
  1

  9
$STYLESHEET
  1

  9
$XEDIT
290
    1
  9
$CEPSNTYPE
380
    0
  9
$PSTYLEMODE
290
    1
  9
$EXTNAMES
290
    1
  9
$PSVPSCALE
 40
1
  9
$OLESTARTUP
290
    0
  9
$SORTENTS
280
  127
  9
$INDEXCTL
280
    0
  9
$HIDETEXT
280
    1
  9
$XCLIPFRAME
290
    0
  9
$HALOGAP
280
    0
  9
$OBSCOLOR
 70
  257
  9
$OBSLTYPE
280
    0
  9
$INTERSECTIONDISPLAY
280
    0
  9
$INTERSECTIONCOLOR
 70
  257
  9
$DIMASSOC
280
    1
  9
$PROJECTNAME
  1

  9
$CAMERADISPLAY
290
    0
  9
$LENSLENGTH
 40
50
  9
$CAMERAHEIGHT
 40
0
  9
$STEPSPERSEC
 40
2
  9
$STEPSIZE
 40
50
  9
$3DDWFPREC
 40
2
  9
$PSOLWIDTH
 40
5
  9
$PSOLHEIGHT
 40
80
  9
$LOFTANG1
 40
1.570796326794897
  9
$LOFTANG2
 40
1.570796326794897
  9
$LOFTMAG1
 40
0
  9
$LOFTMAG2
 40
0
  9
$LOFTPARAM
 70
    7
  9
$LOFTNORMALS
280
    1
  9
$LATITUDE
 40
1
  9
$LONGITUDE
 40
1
  9
$NORTHDIRECTION
 40
0
  9
$TIMEZONE
 70
-8000
  9
$LIGHTGLYPHDISPLAY
280
    1
  9
$TILEMODELIGHTSYNCH
280
    1
  9
$SOLIDHIST
280
    1
  9
$SHOWHIST
280
    1
  9
$DWFFRAME
280
    2
  9
$DGNFRAME
280
    0
  9
$REALWORLDSCALE
290
    1
  9
$INTERFERECOLOR
 62
    1
  9
$CSHADOW
280
    0
  9
$SHADOWPLANELOCATION
 40
0
  0
ENDSEC
  0
SECTION
  2
CLASSES
  0
ENDSEC
  0
SECTION
  2
TABLES
  0
TABLE
  2
VPORT
  5
8
330
0
100
AcDbSymbolTable
 70
    1
  0
VPORT
  5
31
330
2
100
AcDbSymbolTableRecord
100
AcDbViewportTableRecord
  2
*ACTIVE
 70
    0
 10
0
 20
0
 11
1
 21
1
 12
432.2984958404566
 22
233.726219729126
 13
0
 23
0
 14
10
 24
10
 15
10
 25
10
 16
0
 26
0
 36
1
 17
0
 27
0
 37
0
 40
902.6012550515027
 41
1.703684210526316
 42
50
 43
0
 44
0
 50
0
 51
0
 71
    0
 72
  100
 73
    1
 74
    3
 75
    0
 76
    1
 77
    0
 78
    0
281
    0
 65
    1
110
0
120
0
130
0
111
1
121
0
131
0
112
0
122
1
132
0
 79
    0
146
0
348
10020
 60
    7
 61
    5
292
1
282
    1
141
0
142
0
 63
  250
421
3358443
  0
ENDTAB
  0
TABLE
  2
LTYPE
  5
5
330
0
100
AcDbSymbolTable
 70
    4
  0
LTYPE
  5
14
330
5
100
AcDbSymbolTableRecord
100
AcDbLinetypeTableRecord
  2
ByBlock
 70
    0
  3

 72
   65
 73
    0
 40
0
  0
LTYPE
  5
15
330
5
100
AcDbSymbolTableRecord
100
AcDbLinetypeTableRecord
  2
ByLayer
 70
    0
  3

 72
   65
 73
    0
 40
0
  0
LTYPE
  5
16
330
5
100
AcDbSymbolTableRecord
100
AcDbLinetypeTableRecord
  2
Continuous
 70
    0
  3
Solid line
 72
   65
 73
    0
 40
0
  0
LTYPE
  5
32
330
5
100
AcDbSymbolTableRecord
100
AcDbLinetypeTableRecord
  2
DOT
 70
    0
  3
Dot . . . . . . . . . . . . . . . . . . . . . .
 72
   65
 73
    2
 40
6.35
 49
0
 74
    0
 49
-6.35
 74
    0
  0
LTYPE
  5
33
330
5
100
AcDbSymbolTableRecord
100
AcDbLinetypeTableRecord
  2
DOTTINY
 70
    0
  3
Dot (.15x) .....................................
 72
   65
 73
    2
 40
0.9525
 49
0
 74
    0
 49
-0.9525
 74
    0
  0
LTYPE
  5
34
330
5
100
AcDbSymbolTableRecord
100
AcDbLinetypeTableRecord
  2
DOT2
 70
    0
  3
Dot (.5x) .....................................
 72
   65
 73
    2
 40
3.175
 49
0
 74
    0
 49
-3.175
 74
    0
  0
LTYPE
  5
35
330
5
100
AcDbSymbolTableRecord
100
AcDbLinetypeTableRecord
  2
DOTX2
 70
    0
  3
Dot (2x) .  .  .  .  .  .  .  .  .  .  .  .  .
 72
   65
 73
    2
 40
12.7
 49
0
 74
    0
 49
-12.7
 74
    0
  0
LTYPE
  5
36
330
5
100
AcDbSymbolTableRecord
100
AcDbLinetypeTableRecord
  2
DASHED
 70
    0
  3
Dashed _ _ _ _ _ _ _ _ _ _ _ _ _ _ _ _ _
 72
   65
 73
    2
 40
19.05
 49
12.7
 74
    0
 49
-6.35
 74
    0
  0
LTYPE
  5
37
330
5
100
AcDbSymbolTableRecord
100
AcDbLinetypeTableRecord
  2
DASHEDTINY
 70
    0
  3
Dashed (.15x) _ _ _ _ _ _ _ _ _ _ _ _ _ _ _ _ _
 72
   65
 73
    2
 40
2.8575
 49
1.905
 74
    0
 49
-0.9525
 74
    0
  0
LTYPE
  5
38
330
5
100
AcDbSymbolTableRecord
100
AcDbLinetypeTableRecord
  2
DASHED2
 70
    0
  3
Dashed (.5x) _ _ _ _ _ _ _ _ _ _ _ _ _ _ _ _ _
 72
   65
 73
    2
 40
9.524999999999999
 49
6.35
 74
    0
 49
-3.175
 74
    0
  0
LTYPE
  5
39
330
5
100
AcDbSymbolTableRecord
100
AcDbLinetypeTableRecord
  2
DASHEDX2
 70
    0
  3
Dashed (2x) ____  ____  ____  ____  ____  ___
 72
   65
 73
    2
 40
38.09999999999999
 49
25.4
 74
    0
 49
-12.7
 74
    0
  0
LTYPE
  5
3A
330
5
100
AcDbSymbolTableRecord
100
AcDbLinetypeTableRecord
  2
DASHDOT
 70
    0
  3
Dash dot __ . __ . __ . __ . __ . __ . __ . __
 72
   65
 73
    4
 40
25.4
 49
12.7
 74
    0
 49
-6.35
 74
    0
 49
0
 74
    0
 49
-6.35
 74
    0
  0
LTYPE
  5
3B
330
5
100
AcDbSymbolTableRecord
100
AcDbLinetypeTableRecord
  2
DASHDOTTINY
 70
    0
  3
Dash dot (.15x) _._._._._._._._._._._._._._._.
 72
   65
 73
    4
 40
3.81
 49
1.905
 74
    0
 49
-0.9525
 74
    0
 49
0
 74
    0
 49
-0.9525
 74
    0
  0
LTYPE
  5
3C
330
5
100
AcDbSymbolTableRecord
100
AcDbLinetypeTableRecord
  2
DASHDOT2
 70
    0
  3
Dash dot (.5x) _._._._._._._._._._._._._._._.
 72
   65
 73
    4
 40
12.7
 49
6.35
 74
    0
 49
-3.175
 74
    0
 49
0
 74
    0
 49
-3.175
 74
    0
  0
LTYPE
  5
3D
330
5
100
AcDbSymbolTableRecord
100
AcDbLinetypeTableRecord
  2
DASHDOTX2
 70
    0
  3
Dash dot (2x) ____  .  ____  .  ____  .  ___
 72
   65
 73
    4
 40
50.8
 49
25.4
 74
    0
 49
-12.7
 74
    0
 49
0
 74
    0
 49
-12.7
 74
    0
  0
LTYPE
  5
3E
330
5
100
AcDbSymbolTableRecord
100
AcDbLinetypeTableRecord
  2
DIVIDE
 70
    0
  3
Divide ____ . . ____ . . ____ . . ____ . . ____
 72
   65
 73
    6
 40
31.75
 49
12.7
 74
    0
 49
-6.35
 74
    0
 49
0
 74
    0
 49
-6.35
 74
    0
 49
0
 74
    0
 49
-6.35
 74
    0
  0
LTYPE
  5
3F
330
5
100
AcDbSymbolTableRecord
100
AcDbLinetypeTableRecord
  2
DIVIDETINY
 70
    0
  3
Divide (.15x) __..__..__..__..__..__..__..__.._
 72
   65
 73
    6
 40
4.7625
 49
1.905
 74
    0
 49
-0.9525
 74
    0
 49
0
 74
    0
 49
-0.9525
 74
    0
 49
0
 74
    0
 49
-0.9525
 74
    0
  0
LTYPE
  5
40
330
5
100
AcDbSymbolTableRecord
100
AcDbLinetypeTableRecord
  2
DIVIDE2
 70
    0
  3
Divide (.5x) __..__..__..__..__..__..__..__.._
 72
   65
 73
    6
 40
15.875
 49
6.35
 74
    0
 49
-3.175
 74
    0
 49
0
 74
    0
 49
-3.175
 74
    0
 49
0
 74
    0
 49
-3.175
 74
    0
  0
LTYPE
  5
41
330
5
100
AcDbSymbolTableRecord
100
AcDbLinetypeTableRecord
  2
DIVIDEX2
 70
    0
  3
Divide (2x) ________  .  .  ________  .  .  _
 72
   65
 73
    6
 40
63.5
 49
25.4
 74
    0
 49
-12.7
 74
    0
 49
0
 74
    0
 49
-12.7
 74
    0
 49
0
 74
    0
 49
-12.7
 74
    0
  0
LTYPE
  5
42
330
5
100
AcDbSymbolTableRecord
100
AcDbLinetypeTableRecord
  2
BORDER
 70
    0
  3
Border __ __ . __ __ . __ __ . __ __ . __ __ .
 72
   65
 73
    6
 40
44.45
 49
12.7
 74
    0
 49
-6.35
 74
    0
 49
12.7
 74
    0
 49
-6.35
 74
    0
 49
0
 74
    0
 49
-6.35
 74
    0
  0
LTYPE
  5
43
330
5
100
AcDbSymbolTableRecord
100
AcDbLinetypeTableRecord
  2
BORDERTINY
 70
    0
  3
Border (.15x) __.__.__.__.__.__.__.__.__.__.__.
 72
   65
 73
    6
 40
6.6675
 49
1.905
 74
    0
 49
-0.9525
 74
    0
 49
1.905
 74
    0
 49
-0.9525
 74
    0
 49
0
 74
    0
 49
-0.9525
 74
    0
  0
LTYPE
  5
44
330
5
100
AcDbSymbolTableRecord
100
AcDbLinetypeTableRecord
  2
BORDER2
 70
    0
  3
Border (.5x) __.__.__.__.__.__.__.__.__.__.__.
 72
   65
 73
    6
 40
22.225
 49
6.35
 74
    0
 49
-3.175
 74
    0
 49
6.35
 74
    0
 49
-3.175
 74
    0
 49
0
 74
    0
 49
-3.175
 74
    0
  0
LTYPE
  5
45
330
5
100
AcDbSymbolTableRecord
100
AcDbLinetypeTableRecord
  2
BORDERX2
 70
    0
  3
Border (2x) ____  ____  .  ____  ____  .  ___
 72
   65
 73
    6
 40
88.89999999999999
 49
25.4
 74
    0
 49
-12.7
 74
    0
 49
25.4
 74
    0
 49
-12.7
 74
    0
 49
0
 74
    0
 49
-12.7
 74
    0
  0
LTYPE
  5
46
330
5
100
AcDbSymbolTableRecord
100
AcDbLinetypeTableRecord
  2
CENTER
 70
    0
  3
Center ____ _ ____ _ ____ _ ____ _ ____ _ ____
 72
   65
 73
    4
 40
50.8
 49
31.75
 74
    0
 49
-6.35
 74
    0
 49
6.35
 74
    0
 49
-6.35
 74
    0
  0
LTYPE
  5
47
330
5
100
AcDbSymbolTableRecord
100
AcDbLinetypeTableRecord
  2
CENTERTINY
 70
    0
  3
Center (.15x) ___ _ ___ _ ___ _ ___ _ ___ _ ___
 72
   65
 73
    4
 40
7.619999999999999
 49
4.7625
 74
    0
 49
-0.9525
 74
    0
 49
0.9525
 74
    0
 49
-0.9525
 74
    0
  0
LTYPE
  5
48
330
5
100
AcDbSymbolTableRecord
100
AcDbLinetypeTableRecord
  2
CENTER2
 70
    0
  3
Center (.5x) ___ _ ___ _ ___ _ ___ _ ___ _ ___
 72
   65
 73
    4
 40
28.575
 49
19.05
 74
    0
 49
-3.175
 74
    0
 49
3.175
 74
    0
 49
-3.175
 74
    0
  0
LTYPE
  5
49
330
5
100
AcDbSymbolTableRecord
100
AcDbLinetypeTableRecord
  2
CENTERX2
 70
    0
  3
Center (2x) ________  __  ________  __  _____
 72
   65
 73
    4
 40
101.6
 49
63.5
 74
    0
 49
-12.7
 74
    0
 49
12.7
 74
    0
 49
-12.7
 74
    0
  0
ENDTAB
  0
TABLE
  2
LAYER
  5
2
330
0
100
AcDbSymbolTable
 70
    1
  0
LAYER
  5
10
330
2
100
AcDbSymbolTableRecord
100
AcDbLayerTableRecord
  2
0
 70
    1
 62
    7
  6
CONTINUOUS
370
    0
390
F
  0
LAYER
  5
4A
330
2
100
AcDbSymbolTableRecord
100
AcDbLayerTableRecord
  2
description
 70
    0
 62
    6
  6
CONTINUOUS
370
    0
390
F
  0
LAYER
  5
4B
330
2
100
AcDbSymbolTableRecord
100
AcDbLayerTableRecord
  2
helper
 70
    1
 62
   56
420
8421376
  6
CONTINUOUS
370
    0
390
F
  0
LAYER
  5
4C
330
2
100
AcDbSymbolTableRecord
100
AcDbLayerTableRecord
  2
measurements
 70
    0
 62
    2
  6
CONTINUOUS
370
    0
390
F
  0
LAYER
  5
4D
330
2
100
AcDbSymbolTableRecord
100
AcDbLayerTableRecord
  2
milling_bosch_12mm
 70
    0
 62
    3
  6
CONTINUOUS
370
    0
390
F
  0
LAYER
  5
4E
330
2
100
AcDbSymbolTableRecord
100
AcDbLayerTableRecord
  2
pipe
 70
    0
 62
  136
420
32896
  6
CONTINUOUS
370
    0
390
F
  0
LAYER
  5
4F
330
2
100
AcDbSymbolTableRecord
100
AcDbLayerTableRecord
  2
platform
 70
    0
 62
    7
  6
CONTINUOUS
370
    0
390
F
  0
LAYER
  5
50
330
2
100
AcDbSymbolTableRecord
100
AcDbLayerTableRecord
  2
platform_bottom
 70
    0
 62
    7
  6
CONTINUOUS
370
    0
390
F
  0
LAYER
  5
51
330
2
100
AcDbSymbolTableRecord
100
AcDbLayerTableRecord
  2
side_view
 70
    0
 62
    7
  6
CONTINUOUS
370
    0
390
F
  0
ENDTAB
  0
TABLE
  2
STYLE
  5
3
330
0
100
AcDbSymbolTable
 70
    3
  0
STYLE
  5
52
330
2
100
AcDbSymbolTableRecord
100
AcDbTextStyleTableRecord
  2
standard
 70
    0
 40
0
 41
1
 50
0
 71
    0
 42
1
  3
standard
  4

  0
ENDTAB
  0
TABLE
  2
VIEW
  5
6
330
0
100
AcDbSymbolTable
 70
    0
  0
ENDTAB
  0
TABLE
  2
UCS
  5
7
330
0
100
AcDbSymbolTable
 70
    0
  0
ENDTAB
  0
TABLE
  2
APPID
  5
9
330
0
100
AcDbSymbolTable
 70
    1
  0
APPID
  5
12
330
9
100
AcDbSymbolTableRecord
100
AcDbRegAppTableRecord
  2
ACAD
 70
    0
  0
APPID
  5
53
330
9
100
AcDbSymbolTableRecord
100
AcDbRegAppTableRecord
  2
LibreCad
 70
    0
  0
ENDTAB
  0
TABLE
  2
DIMSTYLE
  5
A
330
0
100
AcDbSymbolTable
 70
    1
100
AcDbDimStyleTable
 71
    1
  0
DIMSTYLE
105
54
330
A
100
AcDbSymbolTableRecord
100
AcDbDimStyleTableRecord
  2
Standard
 70
    0
 40
1
 41
2.5
 42
0.625
 43
0.38
 44
1.25
 45
0
 46
0
 47
0
 48
0
 49
1
140
2.5
141
0.09
142
0
143
25.4
144
1
145
0
146
1
147
0.625
148
0
 71
    0
 72
    0
 73
    0
 74
    1
 75
    0
 76
    0
 77
    0
 78
    1
 79
    0
170
    0
171
    2
172
    0
173
    0
174
    0
175
    0
176
    0
177
    0
178
    0
179
    0
271
    2
272
    4
273
    2
274
    2
275
    0
276
    0
277
    2
278
    0
279
    0
280
    0
281
    0
282
    0
283
    1
284
    0
285
    0
286
    0
288
    0
289
    3
340
standard
341

371
   -2
372
   -2
  0
ENDTAB
  0
TABLE
  2
BLOCK_RECORD
  5
1
330
0
100
AcDbSymbolTable
 70
    2
  0
BLOCK_RECORD
  5
1F
330
1
100
AcDbSymbolTableRecord
100
AcDbBlockTableRecord
  2
*Model_Space
 70
    0
280
    1
281
    0
  0
BLOCK_RECORD
  5
1E
330
1
100
AcDbSymbolTableRecord
100
AcDbBlockTableRecord
  2
*Paper_Space
 70
    0
280
    1
281
    0
  0
BLOCK_RECORD
  5
55
330
1
100
AcDbSymbolTableRecord
100
AcDbBlockTableRecord
  2
*D2
 70
    0
280
    1
281
    0
  0
BLOCK_RECORD
  5
58
330
1
100
AcDbSymbolTableRecord
100
AcDbBlockTableRecord
  2
*D3
 70
    0
280
    1
281
    0
  0
BLOCK_RECORD
  5
5B
330
1
100
AcDbSymbolTableRecord
100
AcDbBlockTableRecord
  2
*D13
 70
    0
280
    1
281
    0
  0
BLOCK_RECORD
  5
5E
330
1
100
AcDbSymbolTableRecord
100
AcDbBlockTableRecord
  2
*D15
 70
    0
280
    1
281
    0
  0
BLOCK_RECORD
  5
61
330
1
100
AcDbSymbolTableRecord
100
AcDbBlockTableRecord
  2
*D11
 70
    0
280
    1
281
    0
  0
BLOCK_RECORD
  5
64
330
1
100
AcDbSymbolTableRecord
100
AcDbBlockTableRecord
  2
*D1
 70
    0
280
    1
281
    0
  0
BLOCK_RECORD
  5
67
330
1
100
AcDbSymbolTableRecord
100
AcDbBlockTableRecord
  2
*D10
 70
    0
280
    1
281
    0
  0
BLOCK_RECORD
  5
6A
330
1
100
AcDbSymbolTableRecord
100
AcDbBlockTableRecord
  2
*D7
 70
    0
280
    1
281
    0
  0
BLOCK_RECORD
  5
6D
330
1
100
AcDbSymbolTableRecord
100
AcDbBlockTableRecord
  2
*D14
 70
    0
280
    1
281
    0
  0
BLOCK_RECORD
  5
70
330
1
100
AcDbSymbolTableRecord
100
AcDbBlockTableRecord
  2
*D4
 70
    0
280
    1
281
    0
  0
BLOCK_RECORD
  5
73
330
1
100
AcDbSymbolTableRecord
100
AcDbBlockTableRecord
  2
*D5
 70
    0
280
    1
281
    0
  0
BLOCK_RECORD
  5
76
330
1
100
AcDbSymbolTableRecord
100
AcDbBlockTableRecord
  2
*D8
 70
    0
280
    1
281
    0
  0
BLOCK_RECORD
  5
79
330
1
100
AcDbSymbolTableRecord
100
AcDbBlockTableRecord
  2
*D6
 70
    0
280
    1
281
    0
  0
BLOCK_RECORD
  5
7C
330
1
100
AcDbSymbolTableRecord
100
AcDbBlockTableRecord
  2
*D9
 70
    0
280
    1
281
    0
  0
BLOCK_RECORD
  5
7F
330
1
100
AcDbSymbolTableRecord
100
AcDbBlockTableRecord
  2
*D12
 70
    0
280
    1
281
    0
  0
ENDTAB
  0
ENDSEC
  0
SECTION
  2
BLOCKS
  0
BLOCK
  5
20
330
1F
100
AcDbEntity
  8
0
100
AcDbBlockBegin
  2
*Model_Space
 70
    0
 10
0
 20
0
 30
0
  3
*Model_Space
  1

  0
ENDBLK
  5
21
330
1F
100
AcDbEntity
  8
0
100
AcDbBlockEnd
  0
BLOCK
  5
1C
330
1B
100
AcDbEntity
  8
0
100
AcDbBlockBegin
  2
*Paper_Space
 70
    0
 10
0
 20
0
 30
0
  3
*Paper_Space
  1

  0
ENDBLK
  5
1D
330
1F
100
AcDbEntity
  8
0
100
AcDbBlockEnd
  0
BLOCK
  5
56
330
55
100
AcDbEntity
  8
0
100
AcDbBlockBegin
  2
*D2
 70
    1
 10
0
 20
0
  3
*D2
  1

  0
LINE
  5
82
100
AcDbEntity
  8
measurements
  6
ByBlock
 62
    0
370
   -2
100
AcDbLine
 10
-0.625
 20
7.654042494670958e-17
 11
-45.87725000000032
 21
5.61834273661833e-15
  0
LINE
  5
83
100
AcDbEntity
  8
measurements
  6
ByBlock
 62
    0
370
   -2
100
AcDbLine
 10
-0.625
 20
364
 11
-45.87725000000032
 21
364
  0
LINE
  5
84
100
AcDbEntity
  8
measurements
  6
ByBlock
 62
    0
370
   -2
100
AcDbLine
 10
-44.62725000000032
 20
5.465261886724911e-15
 11
-44.62725000000032
 21
364
  0
SOLID
  5
85
100
AcDbEntity
  8
measurements
  6
ByBlock
 62
    0
370
   -2
100
AcDbTrace
 10
-44.62725000000032
 20
5.465261886724911e-15
 30
0
 11
-45.04353465777317
 21
2.500000000000005
 31
0
 12
-44.21096534222748
 22
2.500000000000005
 32
0
 13
-44.21096534222748
 23
2.500000000000005
 33
0
  0
SOLID
  5
86
100
AcDbEntity
  8
measurements
  6
ByBlock
 62
    0
370
   -2
100
AcDbTrace
 10
-44.62725000000032
 20
364
 30
0
 11
-44.21096534222748
 21
361.5
 31
0
 12
-45.04353465777317
 22
361.5
 32
0
 13
-45.04353465777317
 23
361.5
 33
0
  0
MTEXT
  5
87
100
AcDbEntity
  8
measurements
  6
CONTINUOUS
 62
    0
370
   -2
100
AcDbMText
 10
-46.50225000000032
 20
182
 30
0
 40
2.5
 41
13.8888888888892
 71
    5
 72
    1
  1
364.0000
  7
standard
210
0
220
0
230
1
 50
90
 73
    2
 44
1
  0
ENDBLK
  5
57
330
55
100
AcDbEntity
  8
0
100
AcDbBlockEnd
  0
BLOCK
  5
59
330
58
100
AcDbEntity
  8
0
100
AcDbBlockBegin
  2
*D3
 70
    1
 10
0
 20
0
  3
*D3
  1

  0
LINE
  5
88
100
AcDbEntity
  8
measurements
  6
ByBlock
 62
    0
370
   -2
100
AcDbLine
 10
3.827021247335479e-17
 20
364.625
 11
2.242404829663926e-15
 21
400.6212500000029
  0
LINE
  5
89
100
AcDbEntity
  8
measurements
  6
ByBlock
 62
    0
370
   -2
100
AcDbLine
 10
226
 20
364.625
 11
226
 21
400.6212500000029
  0
LINE
  5
8A
100
AcDbEntity
  8
measurements
  6
ByBlock
 62
    0
370
   -2
100
AcDbLine
 10
2.165864404717217e-15
 20
399.3712500000029
 11
226
 21
399.3712500000029
  0
SOLID
  5
8B
100
AcDbEntity
  8
measurements
  6
ByBlock
 62
    0
370
   -2
100
AcDbTrace
 10
2.165864404717217e-15
 20
399.3712500000029
 30
0
 11
2.500000000000002
 21
399.7875346577757
 31
0
 12
2.500000000000002
 22
398.95496534223
 32
0
 13
2.500000000000002
 23
398.95496534223
 33
0
  0
SOLID
  5
8C
100
AcDbEntity
  8
measurements
  6
ByBlock
 62
    0
370
   -2
100
AcDbTrace
 10
226
 20
399.3712500000029
 30
0
 11
223.5
 21
398.95496534223
 31
0
 12
223.5
 22
399.7875346577757
 32
0
 13
223.5
 23
399.7875346577757
 33
0
  0
MTEXT
  5
8D
100
AcDbEntity
  8
measurements
  6
CONTINUOUS
 62
    0
370
   -2
100
AcDbMText
 10
113
 20
401.2462500000029
 30
0
 40
2.5
 41
13.61111111111127
 71
    5
 72
    1
  1
226.0000
  7
standard
210
0
220
0
230
1
 50
0
 73
    2
 44
1
  0
ENDBLK
  5
5A
330
58
100
AcDbEntity
  8
0
100
AcDbBlockEnd
  0
BLOCK
  5
5C
330
5B
100
AcDbEntity
  8
0
100
AcDbBlockBegin
  2
*D13
 70
    1
 10
0
 20
0
  3
*D13
  1

  0
LINE
  5
8E
100
AcDbEntity
  8
measurements
  6
ByBlock
 62
    0
370
   -2
100
AcDbLine
 10
21
 20
-139.375
 11
21
 21
-88.75
  0
LINE
  5
8F
100
AcDbEntity
  8
measurements
  6
ByBlock
 62
    0
370
   -2
100
AcDbLine
 10
59
 20
-139.375
 11
59
 21
-88.75
  0
LINE
  5
90
100
AcDbEntity
  8
measurements
  6
ByBlock
 62
    0
370
   -2
100
AcDbLine
 10
21
 20
-90
 11
59
 21
-90
  0
SOLID
  5
91
100
AcDbEntity
  8
measurements
  6
ByBlock
 62
    0
370
   -2
100
AcDbTrace
 10
21
 20
-90
 30
0
 11
23.5
 21
-89.58371534222717
 31
0
 12
23.5
 22
-90.41628465777283
 32
0
 13
23.5
 23
-90.41628465777283
 33
0
  0
SOLID
  5
92
100
AcDbEntity
  8
measurements
  6
ByBlock
 62
    0
370
   -2
100
AcDbTrace
 10
59
 20
-90
 30
0
 11
56.5
 21
-90.41628465777283
 31
0
 12
56.5
 22
-89.58371534222717
 32
0
 13
56.5
 23
-89.58371534222717
 33
0
  0
MTEXT
  5
93
100
AcDbEntity
  8
measurements
  6
CONTINUOUS
 62
    0
370
   -2
100
AcDbMText
 10
40
 20
-88.125
 30
0
 40
2.5
 41
11.66666666666682
 71
    5
 72
    1
  1
38.0000
  7
standard
210
0
220
0
230
1
 50
0
 73
    2
 44
1
  0
ENDBLK
  5
5D
330
5B
100
AcDbEntity
  8
0
100
AcDbBlockEnd
  0
BLOCK
  5
5F
330
5E
100
AcDbEntity
  8
0
100
AcDbBlockBegin
  2
*D15
 70
    1
 10
0
 20
0
  3
*D15
  1

  0
LINE
  5
94
100
AcDbEntity
  8
measurements
  6
ByBlock
 62
    0
370
   -2
100
AcDbLine
 10
-1.148106374200643e-16
 20
-180.625
 11
-7.577502069724247e-15
 21
-221.25
  0
LINE
  5
95
100
AcDbEntity
  8
measurements
  6
ByBlock
 62
    0
370
   -2
100
AcDbLine
 10
226
 20
-180.625
 11
226
 21
-221.25
  0
LINE
  5
96
100
AcDbEntity
  8
measurements
  6
ByBlock
 62
    0
370
   -2
100
AcDbLine
 10
-7.347880794884118e-15
 20
-220
 11
226
 21
-220
  0
SOLID
  5
97
100
AcDbEntity
  8
measurements
  6
ByBlock
 62
    0
370
   -2
100
AcDbTrace
 10
-7.347880794884118e-15
 20
-220
 30
0
 11
2.499999999999992
 21
-219.5837153422272
 31
0
 12
2.499999999999992
 22
-220.4162846577728
 32
0
 13
2.499999999999992
 23
-220.4162846577728
 33
0
  0
SOLID
  5
98
100
AcDbEntity
  8
measurements
  6
ByBlock
 62
    0
370
   -2
100
AcDbTrace
 10
226
 20
-220
 30
0
 11
223.5
 21
-220.4162846577728
 31
0
 12
223.5
 22
-219.5837153422272
 32
0
 13
223.5
 23
-219.5837153422272
 33
0
  0
MTEXT
  5
99
100
AcDbEntity
  8
measurements
  6
CONTINUOUS
 62
    0
370
   -2
100
AcDbMText
 10
113
 20
-218.125
 30
0
 40
2.5
 41
13.61111111111127
 71
    5
 72
    1
  1
226.0000
  7
standard
210
0
220
0
230
1
 50
0
 73
    2
 44
1
  0
ENDBLK
  5
60
330
5E
100
AcDbEntity
  8
0
100
AcDbBlockEnd
  0
BLOCK
  5
62
330
61
100
AcDbEntity
  8
0
100
AcDbBlockBegin
  2
*D11
 70
    1
 10
0
 20
0
  3
*D11
  1

  0
LINE
  5
9A
100
AcDbEntity
  8
measurements
  6
ByBlock
 62
    0
370
   -2
100
AcDbLine
 10
-18.69386602869734
 20
9.000000000000002
 11
-18.69386602869734
 21
1.32827907099634e-15
  0
SOLID
  5
9B
100
AcDbEntity
  8
measurements
  6
ByBlock
 62
    0
370
   -2
100
AcDbTrace
 10
-18.69386602869734
 20
9.000000000000002
 30
0
 11
-18.27758137092449
 21
6.500000000000002
 31
0
 12
-19.11015068647018
 22
6.500000000000002
 32
0
 13
-19.11015068647018
 23
6.500000000000002
 33
0
  0
SOLID
  5
9C
100
AcDbEntity
  8
measurements
  6
ByBlock
 62
    0
370
   -2
100
AcDbTrace
 10
-18.69386602869734
 20
1.32827907099634e-15
 30
0
 11
-19.11015068647018
 21
2.500000000000001
 31
0
 12
-18.27758137092449
 22
2.500000000000001
 32
0
 13
-18.27758137092449
 23
2.500000000000001
 33
0
  0
MTEXT
  5
9D
100
AcDbEntity
  8
measurements
  6
CONTINUOUS
 62
    0
370
   -2
100
AcDbMText
 10
-20.56886602869734
 20
14.48611111111119
 30
0
 40
2.5
 41
9.722222222222378
 71
    5
 72
    1
  1
9.0000
  7
standard
210
0
220
0
230
1
 50
90
 73
    2
 44
1
  0
LINE
  5
9E
100
AcDbEntity
  8
measurements
  6
ByBlock
 62
    0
370
   -2
100
AcDbLine
 10
19.375
 20
9
 11
-19.94386602869734
 21
9.000000000000002
  0
LINE
  5
9F
100
AcDbEntity
  8
measurements
  6
ByBlock
 62
    0
370
   -2
100
AcDbLine
 10
-0.625
 20
7.654042494670958e-17
 11
-19.94386602869734
 21
1.481359920889759e-15
  0
ENDBLK
  5
63
330
61
100
AcDbEntity
  8
0
100
AcDbBlockEnd
  0
BLOCK
  5
65
330
64
100
AcDbEntity
  8
0
100
AcDbBlockBegin
  2
*D1
 70
    1
 10
0
 20
0
  3
*D1
  1

  0
LINE
  5
A0
100
AcDbEntity
  8
measurements
  6
ByBlock
 62
    0
370
   -2
100
AcDbLine
 10
-218.625
 20
364
 11
-259.2500000000005
 21
364
  0
LINE
  5
A1
100
AcDbEntity
  8
measurements
  6
ByBlock
 62
    0
370
   -2
100
AcDbLine
 10
-218.625
 20
7.181967782547711e-15
 11
-259.2500000000005
 21
1.215709540408389e-14
  0
LINE
  5
A2
100
AcDbEntity
  8
measurements
  6
ByBlock
 62
    0
370
   -2
100
AcDbLine
 10
-258.0000000000005
 20
364
 11
-258.0000000000005
 21
1.200401455419047e-14
  0
SOLID
  5
A3
100
AcDbEntity
  8
measurements
  6
ByBlock
 62
    0
370
   -2
100
AcDbTrace
 10
-258.0000000000005
 20
364
 30
0
 11
-257.5837153422276
 21
361.5
 31
0
 12
-258.4162846577733
 22
361.5
 32
0
 13
-258.4162846577733
 23
361.5
 33
0
  0
SOLID
  5
A4
100
AcDbEntity
  8
measurements
  6
ByBlock
 62
    0
370
   -2
100
AcDbTrace
 10
-258.0000000000005
 20
1.200401455419047e-14
 30
0
 11
-258.4162846577733
 21
2.500000000000012
 31
0
 12
-257.5837153422276
 22
2.500000000000012
 32
0
 13
-257.5837153422276
 23
2.500000000000012
 33
0
  0
MTEXT
  5
A5
100
AcDbEntity
  8
measurements
  6
CONTINUOUS
 62
    0
370
   -2
100
AcDbMText
 10
-259.8750000000005
 20
182
 30
0
 40
2.5
 41
13.8888888888892
 71
    5
 72
    1
  1
364.0000
  7
standard
210
0
220
0
230
1
 50
90
 73
    2
 44
1
  0
ENDBLK
  5
66
330
64
100
AcDbEntity
  8
0
100
AcDbBlockEnd
  0
BLOCK
  5
68
330
67
100
AcDbEntity
  8
0
100
AcDbBlockBegin
  2
*D10
 70
    1
 10
0
 20
0
  3
*D10
  1

  0
LINE
  5
A6
100
AcDbEntity
  8
measurements
  6
ByBlock
 62
    0
370
   -2
100
AcDbLine
 10
0
 20
-38.67987087831891
 11
113
 21
-38.67987087831891
  0
SOLID
  5
A7
100
AcDbEntity
  8
measurements
  6
ByBlock
 62
    0
370
   -2
100
AcDbTrace
 10
0
 20
-38.67987087831891
 30
0
 11
2.5
 21
-38.26358622054607
 31
0
 12
2.5
 22
-39.09615553609175
 32
0
 13
2.5
 23
-39.09615553609175
 33
0
  0
SOLID
  5
A8
100
AcDbEntity
  8
measurements
  6
ByBlock
 62
    0
370
   -2
100
AcDbTrace
 10
113
 20
-38.67987087831891
 30
0
 11
110.5
 21
-39.09615553609175
 31
0
 12
110.5
 22
-38.26358622054607
 32
0
 13
110.5
 23
-38.26358622054607
 33
0
  0
MTEXT
  5
A9
100
AcDbEntity
  8
measurements
  6
CONTINUOUS
 62
    0
370
   -2
100
AcDbMText
 10
56.5
 20
-36.80487087831891
 30
0
 40
2.5
 41
12.50000000000016
 71
    5
 72
    1
  1
113.0000
  7
standard
210
0
220
0
230
1
 50
0
 73
    2
 44
1
  0
LINE
  5
AA
100
AcDbEntity
  8
measurements
  6
ByBlock
 62
    0
370
   -2
100
AcDbLine
 10
-1.148106374200643e-16
 20
-0.625
 11
-2.296212748401287e-16
 21
-39.92987087831891
  0
LINE
  5
AB
100
AcDbEntity
  8
measurements
  6
ByBlock
 62
    0
370
   -2
100
AcDbLine
 10
113
 20
8.375
 11
113
 21
-39.92987087831891
  0
ENDBLK
  5
69
330
67
100
AcDbEntity
  8
0
100
AcDbBlockEnd
  0
BLOCK
  5
6B
330
6A
100
AcDbEntity
  8
0
100
AcDbBlockBegin
  2
*D7
 70
    1
 10
0
 20
0
  3
*D7
  1

  0
LINE
  5
AC
100
AcDbEntity
  8
milling_bosch_12mm
  6
ByBlock
 62
    0
370
   -2
100
AcDbLine
 10
226.625
 20
0
 11
249.6845000000018
 21
0
  0
LINE
  5
AD
100
AcDbEntity
  8
milling_bosch_12mm
  6
ByBlock
 62
    0
370
   -2
100
AcDbLine
 10
226.625
 20
106
 11
249.6845000000018
 21
106
  0
LINE
  5
AE
100
AcDbEntity
  8
milling_bosch_12mm
  6
ByBlock
 62
    0
370
   -2
100
AcDbLine
 10
248.4345000000018
 20
0
 11
248.4345000000018
 21
106
  0
SOLID
  5
AF
100
AcDbEntity
  8
milling_bosch_12mm
  6
ByBlock
 62
    0
370
   -2
100
AcDbTrace
 10
248.4345000000018
 20
0
 30
0
 11
248.018215342229
 21
2.5
 31
0
 12
248.8507846577747
 22
2.5
 32
0
 13
248.8507846577747
 23
2.5
 33
0
  0
SOLID
  5
B0
100
AcDbEntity
  8
milling_bosch_12mm
  6
ByBlock
 62
    0
370
   -2
100
AcDbTrace
 10
248.4345000000018
 20
106
 30
0
 11
248.8507846577747
 21
103.5
 31
0
 12
248.018215342229
 22
103.5
 32
0
 13
248.018215342229
 23
103.5
 33
0
  0
MTEXT
  5
B1
100
AcDbEntity
  8
milling_bosch_12mm
  6
CONTINUOUS
 62
    0
370
   -2
100
AcDbMText
 10
246.5595000000018
 20
53
 30
0
 40
2.5
 41
13.05555555555571
 71
    5
 72
    1
  1
106.0000
  7
standard
210
0
220
0
230
1
 50
90
 73
    2
 44
1
  0
ENDBLK
  5
6C
330
6A
100
AcDbEntity
  8
0
100
AcDbBlockEnd
  0
BLOCK
  5
6E
330
6D
100
AcDbEntity
  8
0
100
AcDbBlockBegin
  2
*D14
 70
    1
 10
0
 20
0
  3
*D14
  1

  0
LINE
  5
B2
100
AcDbEntity
  8
measurements
  6
ByBlock
 62
    0
370
   -2
100
AcDbLine
 10
-1.148106374200643e-16
 20
-180.625
 11
-3.903561672282188e-15
 21
-201.25
  0
LINE
  5
B3
100
AcDbEntity
  8
measurements
  6
ByBlock
 62
    0
370
   -2
100
AcDbLine
 10
40
 20
-180.625
 11
39.99999999999999
 21
-201.25
  0
LINE
  5
B4
100
AcDbEntity
  8
measurements
  6
ByBlock
 62
    0
370
   -2
100
AcDbLine
 10
-3.673940397442059e-15
 20
-200
 11
39.99999999999999
 21
-200
  0
SOLID
  5
B5
100
AcDbEntity
  8
measurements
  6
ByBlock
 62
    0
370
   -2
100
AcDbTrace
 10
-3.673940397442059e-15
 20
-200
 30
0
 11
2.499999999999996
 21
-199.5837153422272
 31
0
 12
2.499999999999996
 22
-200.4162846577728
 32
0
 13
2.499999999999996
 23
-200.4162846577728
 33
0
  0
SOLID
  5
B6
100
AcDbEntity
  8
measurements
  6
ByBlock
 62
    0
370
   -2
100
AcDbTrace
 10
39.99999999999999
 20
-200
 30
0
 11
37.49999999999999
 21
-200.4162846577728
 31
0
 12
37.49999999999999
 22
-199.5837153422272
 32
0
 13
37.49999999999999
 23
-199.5837153422272
 33
0
  0
MTEXT
  5
B7
100
AcDbEntity
  8
measurements
  6
CONTINUOUS
 62
    0
370
   -2
100
AcDbMText
 10
19.99999999999999
 20
-198.125
 30
0
 40
2.5
 41
11.94444444444445
 71
    5
 72
    1
  1
40.0000
  7
standard
210
0
220
0
230
1
 50
0
 73
    2
 44
1
  0
ENDBLK
  5
6F
330
6D
100
AcDbEntity
  8
0
100
AcDbBlockEnd
  0
BLOCK
  5
71
330
70
100
AcDbEntity
  8
0
100
AcDbBlockBegin
  2
*D4
 70
    1
 10
0
 20
0
  3
*D4
  1

  0
LINE
  5
B8
100
AcDbEntity
  8
measurements
  6
ByBlock
 62
    0
370
   -2
100
AcDbLine
 10
-218
 20
-0.6249999999999929
 11
-218.0000000000001
 21
-56.3945000000004
  0
LINE
  5
B9
100
AcDbEntity
  8
measurements
  6
ByBlock
 62
    0
370
   -2
100
AcDbLine
 10
-200
 20
-0.625
 11
-200.0000000000001
 21
-56.39450000000041
  0
LINE
  5
BA
100
AcDbEntity
  8
measurements
  6
ByBlock
 62
    0
370
   -2
100
AcDbLine
 10
-218.0000000000001
 20
-55.1445000000004
 11
-200.0000000000001
 21
-55.14450000000041
  0
SOLID
  5
BB
100
AcDbEntity
  8
measurements
  6
ByBlock
 62
    0
370
   -2
100
AcDbTrace
 10
-218.0000000000001
 20
-55.1445000000004
 30
0
 11
-215.5000000000001
 21
-54.72821534222756
 31
0
 12
-215.5000000000001
 22
-55.56078465777324
 32
0
 13
-215.5000000000001
 23
-55.56078465777324
 33
0
  0
SOLID
  5
BC
100
AcDbEntity
  8
measurements
  6
ByBlock
 62
    0
370
   -2
100
AcDbTrace
 10
-200.0000000000001
 20
-55.14450000000041
 30
0
 11
-202.5000000000001
 21
-55.56078465777325
 31
0
 12
-202.5000000000001
 22
-54.72821534222756
 32
0
 13
-202.5000000000001
 23
-54.72821534222756
 33
0
  0
MTEXT
  5
BD
100
AcDbEntity
  8
measurements
  6
CONTINUOUS
 62
    0
370
   -2
100
AcDbMText
 10
-209.0000000000001
 20
-53.26950000000041
 30
0
 40
2.5
 41
11.11111111111111
 71
    5
 72
    1
  1
18.0000
  7
standard
210
0
220
0
230
1
 50
360
 73
    2
 44
1
  0
ENDBLK
  5
72
330
70
100
AcDbEntity
  8
0
100
AcDbBlockEnd
  0
BLOCK
  5
74
330
73
100
AcDbEntity
  8
0
100
AcDbBlockBegin
  2
*D5
 70
    1
 10
0
 20
0
  3
*D5
  1

  0
LINE
  5
BE
100
AcDbEntity
  8
measurements
  6
ByBlock
 62
    0
370
   -2
100
AcDbLine
 10
-218.625
 20
40
 11
-235.1877500000017
 21
40
  0
LINE
  5
BF
100
AcDbEntity
  8
measurements
  6
ByBlock
 62
    0
370
   -2
100
AcDbLine
 10
-218.625
 20
7.181970424946709e-15
 11
-235.1877500000017
 21
9.2103223022047e-15
  0
LINE
  5
C0
100
AcDbEntity
  8
measurements
  6
ByBlock
 62
    0
370
   -2
100
AcDbLine
 10
-233.9377500000017
 20
40
 11
-233.9377500000017
 21
9.057241452311281e-15
  0
SOLID
  5
C1
100
AcDbEntity
  8
measurements
  6
ByBlock
 62
    0
370
   -2
100
AcDbTrace
 10
-233.9377500000017
 20
40
 30
0
 11
-233.5214653422289
 21
37.5
 31
0
 12
-234.3540346577745
 22
37.5
 32
0
 13
-234.3540346577745
 23
37.5
 33
0
  0
SOLID
  5
C2
100
AcDbEntity
  8
measurements
  6
ByBlock
 62
    0
370
   -2
100
AcDbTrace
 10
-233.9377500000017
 20
9.057241452311281e-15
 30
0
 11
-234.3540346577745
 21
2.500000000000009
 31
0
 12
-233.5214653422289
 22
2.500000000000009
 32
0
 13
-233.5214653422289
 23
2.500000000000009
 33
0
  0
MTEXT
  5
C3
100
AcDbEntity
  8
measurements
  6
CONTINUOUS
 62
    0
370
   -2
100
AcDbMText
 10
-235.8127500000017
 20
20
 30
0
 40
2.5
 41
11.94444444444445
 71
    5
 72
    1
  1
40.0000
  7
standard
210
0
220
0
230
1
 50
90
 73
    2
 44
1
  0
ENDBLK
  5
75
330
73
100
AcDbEntity
  8
0
100
AcDbBlockEnd
  0
BLOCK
  5
77
330
76
100
AcDbEntity
  8
0
100
AcDbBlockBegin
  2
*D8
 70
    1
 10
0
 20
0
  3
*D8
  1

  0
LINE
  5
C4
100
AcDbEntity
  8
milling_bosch_12mm
  6
ByBlock
 62
    0
370
   -2
100
AcDbLine
 10
226.625
 20
0
 11
265.8867500000019
 21
0
  0
LINE
  5
C5
100
AcDbEntity
  8
milling_bosch_12mm
  6
ByBlock
 62
    0
370
   -2
100
AcDbLine
 10
226.625
 20
112
 11
265.8867500000019
 21
112
  0
LINE
  5
C6
100
AcDbEntity
  8
milling_bosch_12mm
  6
ByBlock
 62
    0
370
   -2
100
AcDbLine
 10
264.6367500000019
 20
0
 11
264.6367500000019
 21
112
  0
SOLID
  5
C7
100
AcDbEntity
  8
milling_bosch_12mm
  6
ByBlock
 62
    0
370
   -2
100
AcDbTrace
 10
264.6367500000019
 20
0
 30
0
 11
264.2204653422291
 21
2.5
 31
0
 12
265.0530346577748
 22
2.5
 32
0
 13
265.0530346577748
 23
2.5
 33
0
  0
SOLID
  5
C8
100
AcDbEntity
  8
milling_bosch_12mm
  6
ByBlock
 62
    0
370
   -2
100
AcDbTrace
 10
264.6367500000019
 20
112
 30
0
 11
265.0530346577748
 21
109.5
 31
0
 12
264.2204653422291
 22
109.5
 32
0
 13
264.2204653422291
 23
109.5
 33
0
  0
MTEXT
  5
C9
100
AcDbEntity
  8
milling_bosch_12mm
  6
CONTINUOUS
 62
    0
370
   -2
100
AcDbMText
 10
262.7617500000019
 20
56
 30
0
 40
2.5
 41
12.5
 71
    5
 72
    1
  1
112.0000
  7
standard
210
0
220
0
230
1
 50
90
 73
    2
 44
1
  0
ENDBLK
  5
78
330
76
100
AcDbEntity
  8
0
100
AcDbBlockEnd
  0
BLOCK
  5
7A
330
79
100
AcDbEntity
  8
0
100
AcDbBlockBegin
  2
*D6
 70
    1
 10
0
 20
0
  3
*D6
  1

  0
LINE
  5
CA
100
AcDbEntity
  8
measurements
  6
ByBlock
 62
    0
370
   -2
100
AcDbLine
 10
-218
 20
58.625
 11
-218
 21
70.0385000000005
  0
LINE
  5
CB
100
AcDbEntity
  8
measurements
  6
ByBlock
 62
    0
370
   -2
100
AcDbLine
 10
-212
 20
58.625
 11
-212
 21
70.0385000000005
  0
LINE
  5
CC
100
AcDbEntity
  8
measurements
  6
ByBlock
 62
    0
370
   -2
100
AcDbLine
 10
-223
 20
68.7885000000005
 11
-207
 21
68.7885000000005
  0
SOLID
  5
CD
100
AcDbEntity
  8
measurements
  6
ByBlock
 62
    0
370
   -2
100
AcDbTrace
 10
-218
 20
68.7885000000005
 30
0
 11
-220.5
 21
68.37221534222766
 31
0
 12
-220.5
 22
69.20478465777333
 32
0
 13
-220.5
 23
69.20478465777333
 33
0
  0
SOLID
  5
CE
100
AcDbEntity
  8
measurements
  6
ByBlock
 62
    0
370
   -2
100
AcDbTrace
 10
-212
 20
68.7885000000005
 30
0
 11
-209.5
 21
69.20478465777333
 31
0
 12
-209.5
 22
68.37221534222766
 32
0
 13
-209.5
 23
68.37221534222766
 33
0
  0
MTEXT
  5
CF
100
AcDbEntity
  8
measurements
  6
CONTINUOUS
 62
    0
370
   -2
100
AcDbMText
 10
-206.5138888888888
 20
70.6635000000005
 30
0
 40
2.5
 41
9.722222222222378
 71
    5
 72
    1
  1
6.0000
  7
standard
210
0
220
0
230
1
 50
0
 73
    2
 44
1
  0
ENDBLK
  5
7B
330
79
100
AcDbEntity
  8
0
100
AcDbBlockEnd
  0
BLOCK
  5
7D
330
7C
100
AcDbEntity
  8
0
100
AcDbBlockBegin
  2
*D9
 70
    1
 10
0
 20
0
  3
*D9
  1

  0
LINE
  5
D0
100
AcDbEntity
  8
measurements
  6
ByBlock
 62
    0
370
   -2
100
AcDbLine
 10
3.552713678800501e-15
 20
-24.20781034561455
 11
20
 21
-24.20781034561455
  0
SOLID
  5
D1
100
AcDbEntity
  8
measurements
  6
ByBlock
 62
    0
370
   -2
100
AcDbTrace
 10
3.552713678800501e-15
 20
-24.20781034561455
 30
0
 11
2.500000000000004
 21
-23.79152568784171
 31
0
 12
2.500000000000004
 22
-24.62409500338739
 32
0
 13
2.500000000000004
 23
-24.62409500338739
 33
0
  0
SOLID
  5
D2
100
AcDbEntity
  8
measurements
  6
ByBlock
 62
    0
370
   -2
100
AcDbTrace
 10
20
 20
-24.20781034561455
 30
0
 11
17.5
 21
-24.62409500338739
 31
0
 12
17.5
 22
-23.79152568784171
 32
0
 13
17.5
 23
-23.79152568784171
 33
0
  0
MTEXT
  5
D3
100
AcDbEntity
  8
measurements
  6
CONTINUOUS
 62
    0
370
   -2
100
AcDbMText
 10
10
 20
-22.33281034561455
 30
0
 40
2.5
 41
11.66666666666667
 71
    5
 72
    1
  1
20.0000
  7
standard
210
0
220
0
230
1
 50
0
 73
    2
 44
1
  0
LINE
  5
D4
100
AcDbEntity
  8
measurements
  6
ByBlock
 62
    0
370
   -2
100
AcDbLine
 10
-1.148106374200643e-16
 20
-0.625
 11
3.323092403960372e-15
 21
-25.45781034561455
  0
LINE
  5
D5
100
AcDbEntity
  8
measurements
  6
ByBlock
 62
    0
370
   -2
100
AcDbLine
 10
20
 20
8.375
 11
20
 21
-25.45781034561455
  0
ENDBLK
  5
7E
330
7C
100
AcDbEntity
  8
0
100
AcDbBlockEnd
  0
BLOCK
  5
80
330
7F
100
AcDbEntity
  8
0
100
AcDbBlockBegin
  2
*D12
 70
    1
 10
0
 20
0
  3
*D12
  1

  0
LINE
  5
D6
100
AcDbEntity
  8
measurements
  6
ByBlock
 62
    0
370
   -2
100
AcDbLine
 10
-0.6249999999999878
 20
-140
 11
-41.24999999999999
 21
-140
  0
LINE
  5
D7
100
AcDbEntity
  8
measurements
  6
ByBlock
 62
    0
370
   -2
100
AcDbLine
 10
-0.625
 20
-100
 11
-41.25000000000001
 21
-100
  0
LINE
  5
D8
100
AcDbEntity
  8
measurements
  6
ByBlock
 62
    0
370
   -2
100
AcDbLine
 10
-39.99999999999999
 20
-140
 11
-40.00000000000001
 21
-100
  0
SOLID
  5
D9
100
AcDbEntity
  8
measurements
  6
ByBlock
 62
    0
370
   -2
100
AcDbTrace
 10
-39.99999999999999
 20
-140
 30
0
 11
-40.41628465777283
 21
-137.5
 31
0
 12
-39.58371534222715
 22
-137.5
 32
0
 13
-39.58371534222715
 23
-137.5
 33
0
  0
SOLID
  5
DA
100
AcDbEntity
  8
measurements
  6
ByBlock
 62
    0
370
   -2
100
AcDbTrace
 10
-40.00000000000001
 20
-100
 30
0
 11
-39.58371534222717
 21
-102.5
 31
0
 12
-40.41628465777285
 22
-102.5
 32
0
 13
-40.41628465777285
 23
-102.5
 33
0
  0
MTEXT
  5
DB
100
AcDbEntity
  8
measurements
  6
CONTINUOUS
 62
    0
370
   -2
100
AcDbMText
 10
-38.125
 20
-120
 30
0
 40
2.5
 41
11.94444444444445
 71
    5
 72
    1
  1
40.0000
  7
standard
210
0
220
0
230
1
 50
270
 73
    2
 44
1
  0
ENDBLK
  5
81
330
7F
100
AcDbEntity
  8
0
100
AcDbBlockEnd
  0
ENDSEC
  0
SECTION
  2
ENTITIES
  0
LWPOLYLINE
  5
DC
100
AcDbEntity
  8
side_view
  6
ByLayer
 62
  256
370
   -1
100
AcDbPolyline
 90
    5
 70
    1
 43
0
 10
-200
 20
0
 10
-120
 20
0
 10
-120
 20
18
 10
-200
 20
18
 10
-200
 20
18
  0
LWPOLYLINE
  5
DD
100
AcDbEntity
  8
side_view
  6
ByLayer
 62
  256
370
   -1
100
AcDbPolyline
 90
    5
 70
    1
 43
0
 10
-200
 20
-18
 10
-120
 20
-18
 10
-120
 20
0
 10
-200
 20
0
 10
-200
 20
0
  0
LWPOLYLINE
  5
DE
100
AcDbEntity
  8
side_view
  6
ByLayer
 62
  136
420
32896
370
   -1
100
AcDbPolyline
 90
    6
 70
    1
 43
0
 10
-166.8
 20
-18
 10
-153.2
 20
-18
 10
-153.2
 20
382
 10
-166.8
 20
382
 10
-166.8
 20
382
 10
-166.8
 20
382
  0
LWPOLYLINE
  5
DF
100
AcDbEntity
  8
side_view
  6
ByLayer
 62
  256
370
   -1
100
AcDbPolyline
 90
    5
 70
    1
 43
0
 10
-200
 20
364
 10
-120
 20
364
 10
-120
 20
382
 10
-200
 20
382
 10
-200
 20
382
  0
LWPOLYLINE
  5
E0
100
AcDbEntity
  8
side_view
  6
ByLayer
 62
  256
370
   -1
100
AcDbPolyline
 90
    5
 70
    1
 43
0
 10
-200
 20
346
 10
-120
 20
346
 10
-120
 20
364
 10
-200
 20
364
 10
-200
 20
364
  0
LINE
  5
E1
100
AcDbEntity
  8
side_view
  6
ByLayer
 62
  256
370
   -1
100
AcDbLine
 10
-140
 20
-18
 11
-140
 21
3.552713678800501e-15
  0
LINE
  5
E2
100
AcDbEntity
  8
side_view
  6
ByLayer
 62
  256
370
   -1
100
AcDbLine
 10
-180
 20
-3.552713678800501e-15
 11
-180
 21
-18
  0
LINE
  5
E3
100
AcDbEntity
  8
side_view
  6
ByLayer
 62
  256
370
   -1
100
AcDbLine
 10
-140
 20
364
 11
-140
 21
382
  0
LINE
  5
E4
100
AcDbEntity
  8
side_view
  6
ByLayer
 62
  256
370
   -1
100
AcDbLine
 10
-180
 20
382
 11
-180
 21
364
  0
DIMENSION
  5
E5
100
AcDbEntity
  8
measurements
  6
ByLayer
 62
  256
370
   -1
100
AcDbDimension
  2
*D1
 10
-258.0000000000005
 20
1.77635683940025e-14
 30
0
 11
-259.8750000000005
 21
182
 31
0
 70
   33
 71
    5
  3
Standard
 53
0
210
0
220
0
230
1
100
AcDbAlignedDimension
 13
-218
 23
364
 33
0
 14
-218
 24
7.105427357601002e-15
 34
0
  0
LINE
  5
E6
100
AcDbEntity
  8
side_view
  6
ByLayer
 62
  256
370
   -1
100
AcDbLine
 10
-212
 20
40
 11
-212
 21
58
  0
LINE
  5
E7
100
AcDbEntity
  8
side_view
  6
ByLayer
 62
  256
370
   -1
100
AcDbLine
 10
-218
 20
40
 11
-212
 21
40
  0
LINE
  5
E8
100
AcDbEntity
  8
side_view
  6
ByLayer
 62
  256
370
   -1
100
AcDbLine
 10
-212
 20
58
 11
-218
 21
58
  0
MTEXT
  5
E9
100
AcDbEntity
  8
description
  6
ByLayer
 62
  256
370
   -1
100
AcDbMText
 10
-200.1120000000014
 20
406.761750000003
 30
0
 40
5
 41
30.41666560665592
 71
    1
 72
    1
  1
Side view
  7
standard
210
0
220
0
230
1
 50
0
 73
    2
 44
1
  0
LINE
  5
EA
100
AcDbEntity
  8
side_view
  6
ByLayer
 62
  256
370
   -1
100
AcDbLine
 10
-218
 20
364
 11
-218
 21
58
  0
LINE
  5
EB
100
AcDbEntity
  8
side_view
  6
ByLayer
 62
  256
370
   -1
100
AcDbLine
 10
-200
 20
7.10543e-15
 11
-200
 21
364
  0
LINE
  5
EC
100
AcDbEntity
  8
side_view
  6
ByLayer
 62
  256
370
   -1
100
AcDbLine
 10
-200
 20
364
 11
-218
 21
364
  0
LINE
  5
ED
100
AcDbEntity
  8
side_view
  6
ByLayer
 62
  256
370
   -1
100
AcDbLine
 10
-218
 20
40
 11
-218
 21
7.10543e-15
  0
LINE
  5
EE
100
AcDbEntity
  8
side_view
  6
ByLayer
 62
  256
370
   -1
100
AcDbLine
 10
-218
 20
7.10543e-15
 11
-200
 21
7.10543e-15
  0
LWPOLYLINE
  5
EF
100
AcDbEntity
  8
platform
  6
ByLayer
 62
  256
370
   -1
100
AcDbPolyline
 90
    5
 70
    1
 43
0
 10
0
 20
0
 10
226
 20
0
 10
226
 20
364
 10
0
 20
364
 10
0
 20
364
  0
DIMENSION
  5
F0
100
AcDbEntity
  8
measurements
  6
ByLayer
 62
  256
370
   -1
100
AcDbDimension
  2
*D2
 10
-44.62725000000032
 20
364
 30
0
 11
-46.50225000000032
 21
182
 31
0
 70
   33
 71
    5
  3
Standard
 53
0
210
0
220
0
230
1
100
AcDbAlignedDimension
 13
0
 23
0
 33
0
 14
0
 24
364
 34
0
  0
DIMENSION
  5
F1
100
AcDbEntity
  8
measurements
  6
ByLayer
 62
  256
370
   -1
100
AcDbDimension
  2
*D3
 10
226
 20
399.3712500000029
 30
0
 11
113
 21
401.2462500000029
 31
0
 70
   33
 71
    5
  3
Standard
 53
0
210
0
220
0
230
1
100
AcDbAlignedDimension
 13
0
 23
364
 33
0
 14
226
 24
364
 34
0
  0
DIMENSION
  5
F2
100
AcDbEntity
  8
measurements
  6
ByLayer
 62
  256
370
   -1
100
AcDbDimension
  2
*D4
 10
-200
 20
-55.14450000000041
 30
0
 11
-209.0000000000001
 21
-53.26950000000041
 31
0
 70
   33
 71
    5
  3
Standard
 53
0
210
0
220
0
230
1
100
AcDbAlignedDimension
 13
-218
 23
7.10543e-15
 33
0
 14
-200
 24
0
 34
0
  0
DIMENSION
  5
F3
100
AcDbEntity
  8
measurements
  6
ByLayer
 62
  256
370
   -1
100
AcDbDimension
  2
*D5
 10
-233.9377500000017
 20
1.100905290462256e-14
 30
0
 11
-235.8127500000017
 21
20
 31
0
 70
   33
 71
    5
  3
Standard
 53
0
210
0
220
0
230
1
100
AcDbAlignedDimension
 13
-218
 23
40
 33
0
 14
-218
 24
7.10543e-15
 34
0
  0
DIMENSION
  5
F4
100
AcDbEntity
  8
measurements
  6
ByLayer
 62
  256
370
   -1
100
AcDbDimension
  2
*D6
 10
-212
 20
68.7885000000005
 30
0
 11
-215
 21
70.6635000000005
 31
0
 70
   33
 71
    5
  3
Standard
 53
0
210
0
220
0
230
1
100
AcDbAlignedDimension
 13
-218
 23
58
 33
0
 14
-212
 24
58
 34
0
  0
LWPOLYLINE
  5
F5
100
AcDbEntity
  8
platform
  6
ByLayer
 62
  256
370
   -1
100
AcDbPolyline
 90
    4
 70
    1
 43
0
 10
0
 20
40
 10
226
 20
40
 10
226
 20
58
 10
0
 20
58
  0
LINE
  5
F6
100
AcDbEntity
  8
milling_bosch_12mm
  6
ByLayer
 62
  256
370
   -1
100
AcDbLine
 10
3.673940397442059e-16
 20
46
 11
226
 21
46
  0
LINE
  5
F7
100
AcDbEntity
  8
milling_bosch_12mm
  6
ByLayer
 62
  256
370
   -1
100
AcDbLine
 10
226
 20
52
 11
-1.102182119232618e-15
 21
52
  0
LINE
  5
F8
100
AcDbEntity
  8
milling_bosch_12mm
  6
ByLayer
 62
  256
370
   -1
100
AcDbLine
 10
4.041334437186266e-15
 20
106
 11
226
 21
106
  0
LINE
  5
F9
100
AcDbEntity
  8
milling_bosch_12mm
  6
ByLayer
 62
  256
370
   -1
100
AcDbLine
 10
226
 20
112
 11
1.726751986797768e-14
 21
112
  0
DIMENSION
  5
FA
100
AcDbEntity
  8
milling_bosch_12mm
  6
ByLayer
 62
  256
370
   -1
100
AcDbDimension
  2
*D7
 10
248.4345000000018
 20
106
 30
0
 11
246.5595000000018
 21
53
 31
0
 70
   33
 71
    5
  3
Standard
 53
0
210
0
220
0
230
1
100
AcDbAlignedDimension
 13
226
 23
0
 33
0
 14
226
 24
106
 34
0
  0
DIMENSION
  5
FB
100
AcDbEntity
  8
milling_bosch_12mm
  6
ByLayer
 62
  256
370
   -1
100
AcDbDimension
  2
*D8
 10
264.6367500000019
 20
112
 30
0
 11
262.7617500000019
 21
56
 31
0
 70
   33
 71
    5
  3
Standard
 53
0
210
0
220
0
230
1
100
AcDbAlignedDimension
 13
226
 23
0
 33
0
 14
226
 24
112
 34
0
  0
CIRCLE
  5
FC
100
AcDbEntity
  8
platform
  6
ByLayer
 62
  256
370
   -1
100
AcDbCircle
 10
113
 20
9
 40
2
  0
CIRCLE
  5
FD
100
AcDbEntity
  8
platform
  6
ByLayer
 62
  256
370
   -1
100
AcDbCircle
 10
20
 20
9
 40
2
  0
CIRCLE
  5
FE
100
AcDbEntity
  8
platform
  6
ByLayer
 62
  256
370
   -1
100
AcDbCircle
 10
206
 20
9
 40
2
  0
CIRCLE
  5
FF
100
AcDbEntity
  8
platform
  6
ByLayer
 62
  256
370
   -1
100
AcDbCircle
 10
113
 20
355
 40
2
  0
CIRCLE
  5
100
100
AcDbEntity
  8
platform
  6
ByLayer
 62
  256
370
   -1
100
AcDbCircle
 10
20
 20
355
 40
2
  0
CIRCLE
  5
101
100
AcDbEntity
  8
platform
  6
ByLayer
 62
  256
370
   -1
100
AcDbCircle
 10
206
 20
355
 40
2
  0
DIMENSION
  5
102
100
AcDbEntity
  8
measurements
  6
ByLayer
 62
  256
370
   -1
100
AcDbDimension
  2
*D9
 10
20
 20
-24.20781034561455
 30
0
 11
10
 21
-22.33281034561455
 31
0
 70
   32
 71
    5
  3
Standard
 53
0
210
0
220
0
230
1
100
AcDbAlignedDimension
 13
0
 23
0
 33
0
 14
20
 24
9
 34
0
100
AcDbRotatedDimension
  0
DIMENSION
  5
103
100
AcDbEntity
  8
measurements
  6
ByLayer
 62
  256
370
   -1
100
AcDbDimension
  2
*D10
 10
113
 20
-38.67987087831891
 30
0
 11
56.5
 21
-36.80487087831891
 31
0
 70
   32
 71
    5
  3
Standard
 53
0
210
0
220
0
230
1
100
AcDbAlignedDimension
 13
0
 23
0
 33
0
 14
113
 24
9
 34
0
100
AcDbRotatedDimension
  0
DIMENSION
  5
104
100
AcDbEntity
  8
measurements
  6
ByLayer
 62
  256
370
   -1
100
AcDbDimension
  2
*D11
 10
-18.69386602869734
 20
2.289338319573364e-15
 30
0
 11
-20.56886602869734
 21
4.500000000000002
 31
0
 70
   32
 71
    5
  3
Standard
 53
0
210
0
220
0
230
1
100
AcDbAlignedDimension
 13
20
 23
9
 33
0
 14
0
 24
0
 34
0
 50
90
100
AcDbRotatedDimension
  0
LWPOLYLINE
  5
105
100
AcDbEntity
  8
platform_bottom
  6
ByLayer
 62
  256
370
   -1
100
AcDbPolyline
 90
    5
 70
    1
 43
0
 10
0
 20
-100
 10
226
 20
-100
 10
226
 20
-180
 10
0
 20
-180
 10
0
 20
-180
  0
LINE
  5
106
100
AcDbEntity
  8
helper
  6
ByLayer
 62
  256
370
   -1
100
AcDbLine
 10
40
 20
-180
 11
40
 21
-100
  0
LINE
  5
107
100
AcDbEntity
  8
helper
  6
ByLayer
 62
  256
370
   -1
100
AcDbLine
 10
186
 20
-99.99999999999999
 11
186
 21
-180
  0
LINE
  5
108
100
AcDbEntity
  8
helper
  6
ByLayer
 62
  256
370
   -1
100
AcDbLine
 10
226
 20
-140
 11
1.224646799147353e-14
 21
-140
  0
CIRCLE
  5
109
100
AcDbEntity
  8
platform_bottom
  6
ByLayer
 62
  256
370
   -1
100
AcDbCircle
 10
40
 20
-140
 40
19
  0
CIRCLE
  5
10A
100
AcDbEntity
  8
platform_bottom
  6
ByLayer
 62
  256
370
   -1
100
AcDbCircle
 10
186
 20
-140
 40
19
  0
DIMENSION
  5
10B
100
AcDbEntity
  8
measurements
  6
ByLayer
 62
  256
370
   -1
100
AcDbDimension
  2
*D12
 10
-40.00000000000001
 20
-100
 30
0
 11
-38.125
 21
-120
 31
0
 70
   33
 71
    5
  3
Standard
 53
0
210
0
220
0
230
1
100
AcDbAlignedDimension
 13
1.224646799147353e-14
 23
-140
 33
0
 14
0
 24
-100
 34
0
  0
DIMENSION
  5
10C
100
AcDbEntity
  8
measurements
  6
ByLayer
 62
  256
370
   -1
100
AcDbDimension
  2
*D13
 10
59
 20
-90
 30
0
 11
40
 21
-88.125
 31
0
 70
   33
 71
    5
  3
Standard
 53
0
210
0
220
0
230
1
100
AcDbAlignedDimension
 13
21
 23
-140
 33
0
 14
59
 24
-140
 34
0
  0
DIMENSION
  5
10D
100
AcDbEntity
  8
measurements
  6
ByLayer
 62
  256
370
   -1
100
AcDbDimension
  2
*D14
 10
40
 20
-200
 30
0
 11
19.99999999999999
 21
-198.125
 31
0
 70
   33
 71
    5
  3
Standard
 53
0
210
0
220
0
230
1
100
AcDbAlignedDimension
 13
0
 23
-180
 33
0
 14
40
 24
-180
 34
0
  0
DIMENSION
  5
10E
100
AcDbEntity
  8
measurements
  6
ByLayer
 62
  256
370
   -1
100
AcDbDimension
  2
*D15
 10
226
 20
-220
 30
0
 11
113
 21
-218.125
 31
0
 70
   33
 71
    5
  3
Standard
 53
0
210
0
220
0
230
1
100
AcDbAlignedDimension
 13
0
 23
-180
 33
0
 14
226
 24
-180
 34
0
  0
ENDSEC
  0
SECTION
  2
OBJECTS
  0
DICTIONARY
  5
C
330
0
100
AcDbDictionary
281
    1
  3
ACAD_GROUP
350
D
  0
DICTIONARY
  5
D
330
C
100
AcDbDictionary
281
    1
  0
ENDSEC
  0
EOF
